<svg width="560" height="352" viewBox="0 0 560 352" fill="none" xmlns="http://www.w3.org/2000/svg">
<path d="M3 176H7M13 176H17M23 176H27M33 176H37M43 176H47M53 176H57M63 176H67M73 176H77M83 176H87M93 176H97M103 176H107M113 176H117M123 176H127M133 176H137M143 176H147M153 176H157M163 176H167M173 176H177M183 176H187M193 176H197M203 176H207M213 176H217M223 176H227M233 176H237M243 176H247M253 176H257M263 176H267M273 176H277M283 176H287M293 176H297M303 176H307M313 176H317M323 176H327M333 176H337M343 176H347M353 176H357M363 176H367M373 176H377M383 176H387M393 176H397M403 176H407M413 176H417M423 176H427M433 176H437M443 176H447M453 176H457M463 176H467M473 176H477M483 176H487M493 176H497M503 176H507M513 176H517M523 176H527M533 176H537M543 176H547M553 176H557M280 3.01429V7.04286M280 13.0714V17.1M280 23.1286V27.1571M280 33.1857V37.2143M280 43.2429V47.2714M280 53.3V57.3286M280 63.3572V67.3857M280 73.4143V77.4429M280 83.4714V87.5M280 93.5286V97.5572M280 103.586V107.614M280 113.643V117.671M280 123.7V127.729M280 133.757V137.786M280 143.814V147.843M280 153.871V157.9M280 163.929V167.957M280 173.986V175.5M280 176.5V178.014M280 184.043V188.071M280 194.1V198.128M280 204.157V208.186M280 214.214V218.243M280 224.271V228.3M280 234.328V238.357M280 244.386V248.414M280 254.443V258.471M280 264.5V268.528M280 274.557V278.586M280 284.614V288.643M280 294.671V298.7M280 304.728V308.757M280 314.785V318.814M280 324.843V328.871M280 334.9V338.928M280 344.957V348.985M420 3.01429V7.04286M420 13.0714V17.1M420 23.1286V27.1571M420 33.1857V37.2143M420 43.2429V47.2714M420 53.3V57.3286M420 63.3572V67.3857M420 73.4143V77.4429M420 83.4714V87.5M420 93.5286V97.5572M420 103.586V107.614M420 113.643V117.671M420 123.7V127.729M420 133.757V137.786M420 143.814V147.843M420 153.871V157.9M420 163.929V167.957M420 173.986V175.5M420 176.5V178.014M420 184.043V188.071M420 194.1V198.128M420 204.157V208.186M420 214.214V218.243M420 224.271V228.3M420 234.328V238.357M420 244.386V248.414M420 254.443V258.471M420 264.5V268.528M420 274.557V278.586M420 284.614V288.643M420 294.671V298.7M420 304.728V308.757M420 314.785V318.814M420 324.843V328.871M420 334.9V338.928M420 344.957V348.985M140 3.01429V7.04286M140 13.0714V17.1M140 23.1286V27.1571M140 33.1857V37.2143M140 43.2429V47.2714M140 53.3V57.3286M140 63.3572V67.3857M140 73.4143V77.4429M140 83.4714V87.5M140 93.5286V97.5572M140 103.586V107.614M140 113.643V117.671M140 123.7V127.729M140 133.757V137.786M140 143.814V147.843M140 153.871V157.9M140 163.929V167.957M140 173.986V175.5M140 176.5V178.014M140 184.043V188.071M140 194.1V198.128M140 204.157V208.186M140 214.214V218.243M140 224.271V228.3M140 234.328V238.357M140 244.386V248.414M140 254.443V258.471M140 264.5V268.528M140 274.557V278.586M140 284.614V288.643M140 294.671V298.7M140 304.728V308.757M140 314.785V318.814M140 324.843V328.871M140 334.9V338.928M140 344.957V348.985M0 178.922C0.276142 178.922 0.5 178.698 0.5 178.422V176.5H2.5C2.77614 176.5 3 176.276 3 176C3 175.724 2.77614 175.5 2.5 175.5H0.5V173.578C0.5 173.302 0.276142 173.078 0 173.078V169.234C0.276142 169.234 0.5 169.011 0.5 168.734V163.891C0.5 163.614 0.276142 163.391 0 163.391V159.547C0.276142 159.547 0.5 159.323 0.5 159.047V154.203C0.5 153.927 0.276142 153.703 0 153.703V149.859C0.276142 149.859 0.5 149.636 0.5 149.359V144.516C0.5 144.239 0.276142 144.016 0 144.016V140.172C0.276142 140.172 0.5 139.948 0.5 139.672V134.828C0.5 134.552 0.276142 134.328 0 134.328V130.484C0.276142 130.484 0.5 130.261 0.5 129.984V125.141C0.5 124.864 0.276142 124.641 0 124.641V120.797C0.276142 120.797 0.5 120.573 0.5 120.297V115.453C0.5 115.177 0.276142 114.953 0 114.953V111.109C0.276142 111.109 0.5 110.886 0.5 110.609V105.766C0.5 105.489 0.276142 105.266 0 105.266V101.422C0.276142 101.422 0.5 101.198 0.5 100.922V96.0781C0.5 95.802 0.276142 95.5781 0 95.5781V91.7344C0.276142 91.7344 0.5 91.5105 0.5 91.2344V86.3906C0.5 86.1145 0.276142 85.8906 0 85.8906V82.0469C0.276142 82.0469 0.5 81.823 0.5 81.5469V76.7031C0.5 76.427 0.276142 76.2031 0 76.2031V72.3594C0.276142 72.3594 0.5 72.1355 0.5 71.8594V67.0156C0.5 66.7395 0.276142 66.5156 0 66.5156V62.6719C0.276142 62.6719 0.5 62.448 0.5 62.1719V57.3281C0.5 57.052 0.276142 56.8281 0 56.8281V52.9844C0.276142 52.9844 0.5 52.7605 0.5 52.4844V47.6406C0.5 47.3645 0.276142 47.1406 0 47.1406V43.2969C0.276142 43.2969 0.5 43.073 0.5 42.7969V37.9531C0.5 37.677 0.276142 37.4531 0 37.4531V33.6094C0.276142 33.6094 0.5 33.3855 0.5 33.1094V28.2656C0.5 27.9895 0.276142 27.7656 0 27.7656V23.9219C0.276142 23.9219 0.5 23.698 0.5 23.4219V21C0.5 20.0921 0.558993 19.1982 0.673298 18.3219C0.708759 18.05 0.518761 17.8007 0.248072 17.7622C0.480865 16.258 0.873297 14.8065 1.40751 13.4256C1.66127 13.5273 1.95034 13.4062 2.05535 13.153C2.74635 11.4867 3.65093 9.931 4.73507 8.5202C4.90213 8.30281 4.86281 7.99183 4.64795 7.82271C5.59019 6.65495 6.65495 5.59018 7.82271 4.64795C7.99183 4.86281 8.30281 4.90213 8.5202 4.73507C9.931 3.65093 11.4867 2.74635 13.153 2.05535C13.4062 1.95034 13.5273 1.66127 13.4256 1.40751C14.8065 0.873295 16.258 0.480864 17.7622 0.248071C17.8007 0.51876 18.05 0.708758 18.3219 0.673297C19.1982 0.558992 20.0921 0.5 21 0.5H23.4792C23.7553 0.5 23.9792 0.276142 23.9792 0H27.9375C27.9375 0.276142 28.1614 0.5 28.4375 0.5H33.3958C33.672 0.5 33.8958 0.276142 33.8958 0H37.8542C37.8542 0.276142 38.078 0.5 38.3542 0.5H43.3125C43.5886 0.5 43.8125 0.276142 43.8125 0H47.7708C47.7708 0.276142 47.9947 0.5 48.2708 0.5H53.2292C53.5053 0.5 53.7292 0.276142 53.7292 0H57.6875C57.6875 0.276142 57.9114 0.5 58.1875 0.5H63.1458C63.422 0.5 63.6458 0.276142 63.6458 0H67.6042C67.6042 0.276142 67.828 0.5 68.1042 0.5H73.0625C73.3386 0.5 73.5625 0.276142 73.5625 0H77.5208C77.5208 0.276142 77.7447 0.5 78.0208 0.5H82.9792C83.2553 0.5 83.4792 0.276142 83.4792 0H87.4375C87.4375 0.276142 87.6614 0.5 87.9375 0.5H92.8958C93.172 0.5 93.3958 0.276142 93.3958 0H97.3542C97.3542 0.276142 97.578 0.5 97.8542 0.5H102.812C103.089 0.5 103.312 0.276142 103.312 0H107.271C107.271 0.276142 107.495 0.5 107.771 0.5H112.729C113.005 0.5 113.229 0.276142 113.229 0H117.188C117.188 0.276142 117.411 0.5 117.688 0.5H122.646C122.922 0.5 123.146 0.276142 123.146 0H127.104C127.104 0.276142 127.328 0.5 127.604 0.5H132.563C132.839 0.5 133.063 0.276142 133.063 0H137.021C137.021 0.276142 137.245 0.5 137.521 0.5H139.5V2.51429C139.5 2.79043 139.724 3.01429 140 3.01429C140.276 3.01429 140.5 2.79043 140.5 2.51429V0.5H142.5C142.776 0.5 143 0.276142 143 0H147C147 0.276142 147.224 0.5 147.5 0.5H152.5C152.776 0.5 153 0.276142 153 0H157C157 0.276142 157.224 0.5 157.5 0.5H162.5C162.776 0.5 163 0.276142 163 0H167C167 0.276142 167.224 0.5 167.5 0.5H172.5C172.776 0.5 173 0.276142 173 0H177C177 0.276142 177.224 0.5 177.5 0.5H182.5C182.776 0.5 183 0.276142 183 0H187C187 0.276142 187.224 0.5 187.5 0.5H192.5C192.776 0.5 193 0.276142 193 0H197C197 0.276142 197.224 0.5 197.5 0.5H202.5C202.776 0.5 203 0.276142 203 0H207C207 0.276142 207.224 0.5 207.5 0.5H212.5C212.776 0.5 213 0.276142 213 0H217C217 0.276142 217.224 0.5 217.5 0.5H222.5C222.776 0.5 223 0.276142 223 0H227C227 0.276142 227.224 0.5 227.5 0.5H232.5C232.776 0.5 233 0.276142 233 0H237C237 0.276142 237.224 0.5 237.5 0.5H242.5C242.776 0.5 243 0.276142 243 0H247C247 0.276142 247.224 0.5 247.5 0.5H252.5C252.776 0.5 253 0.276142 253 0H257C257 0.276142 257.224 0.5 257.5 0.5H262.5C262.776 0.5 263 0.276142 263 0H267C267 0.276142 267.224 0.5 267.5 0.5H272.5C272.776 0.5 273 0.276142 273 0H277C277 0.276142 277.224 0.5 277.5 0.5H279.5V2.51429C279.5 2.79043 279.724 3.01429 280 3.01429C280.276 3.01429 280.5 2.79043 280.5 2.51429V0.5H282.5C282.776 0.5 283 0.276142 283 0H287C287 0.276142 287.224 0.5 287.5 0.5H292.5C292.776 0.5 293 0.276142 293 0H297C297 0.276142 297.224 0.5 297.5 0.5H302.5C302.776 0.5 303 0.276142 303 0H307C307 0.276142 307.224 0.5 307.5 0.5H312.5C312.776 0.5 313 0.276142 313 0H317C317 0.276142 317.224 0.5 317.5 0.5H322.5C322.776 0.5 323 0.276142 323 0H327C327 0.276142 327.224 0.5 327.5 0.5H332.5C332.776 0.5 333 0.276142 333 0H337C337 0.276142 337.224 0.5 337.5 0.5H342.5C342.776 0.5 343 0.276142 343 0H347C347 0.276142 347.224 0.5 347.5 0.5H352.5C352.776 0.5 353 0.276142 353 0H357C357 0.276142 357.224 0.5 357.5 0.5H362.5C362.776 0.5 363 0.276142 363 0H367C367 0.276142 367.224 0.5 367.5 0.5H372.5C372.776 0.5 373 0.276142 373 0H377C377 0.276142 377.224 0.5 377.5 0.5H382.5C382.776 0.5 383 0.276142 383 0H387C387 0.276142 387.224 0.5 387.5 0.5H392.5C392.776 0.5 393 0.276142 393 0H397C397 0.276142 397.224 0.5 397.5 0.5H402.5C402.776 0.5 403 0.276142 403 0H407C407 0.276142 407.224 0.5 407.5 0.5H412.5C412.776 0.5 413 0.276142 413 0H417C417 0.276142 417.224 0.5 417.5 0.5H419.5V2.51429C419.5 2.79043 419.724 3.01429 420 3.01429C420.276 3.01429 420.5 2.79043 420.5 2.51429V0.5H422.479C422.755 0.5 422.979 0.276142 422.979 0H426.938C426.938 0.276142 427.161 0.5 427.438 0.5H432.396C432.672 0.5 432.896 0.276142 432.896 0H436.854C436.854 0.276142 437.078 0.5 437.354 0.5H442.312C442.589 0.5 442.812 0.276142 442.812 0H446.771C446.771 0.276142 446.995 0.5 447.271 0.5H452.229C452.505 0.5 452.729 0.276142 452.729 0H456.688C456.688 0.276142 456.911 0.5 457.188 0.5H462.146C462.422 0.5 462.646 0.276142 462.646 0H466.604C466.604 0.276142 466.828 0.5 467.104 0.5H472.062C472.339 0.5 472.562 0.276142 472.562 0H476.521C476.521 0.276142 476.745 0.5 477.021 0.5H481.979C482.255 0.5 482.479 0.276142 482.479 0H486.438C486.438 0.276142 486.661 0.5 486.938 0.5H491.896C492.172 0.5 492.396 0.276142 492.396 0H496.354C496.354 0.276142 496.578 0.5 496.854 0.5H501.812C502.089 0.5 502.312 0.276142 502.312 0H506.271C506.271 0.276142 506.495 0.5 506.771 0.5H511.729C512.005 0.5 512.229 0.276142 512.229 0H516.188C516.188 0.276142 516.411 0.5 516.688 0.5H521.646C521.922 0.5 522.146 0.276142 522.146 0H526.104C526.104 0.276142 526.328 0.5 526.604 0.5H531.562C531.839 0.5 532.062 0.276142 532.062 0H536.021C536.021 0.276142 536.245 0.5 536.521 0.5H539C539.908 0.5 540.802 0.558993 541.678 0.673298C541.95 0.708758 542.199 0.518761 542.238 0.248071C543.742 0.480864 545.193 0.873294 546.574 1.40751C546.473 1.66127 546.594 1.95034 546.847 2.05535C548.513 2.74635 550.069 3.65093 551.48 4.73507C551.697 4.90213 552.008 4.86281 552.177 4.64795C553.345 5.59019 554.41 6.65496 555.352 7.82273C555.137 7.99185 555.098 8.30281 555.265 8.5202C556.349 9.931 557.254 11.4867 557.945 13.153C558.05 13.4062 558.339 13.5273 558.592 13.4256C559.127 14.8065 559.519 16.258 559.752 17.7622C559.481 17.8007 559.291 18.05 559.327 18.3219C559.441 19.1982 559.5 20.0921 559.5 21V23.4219C559.5 23.698 559.724 23.9219 560 23.9219V27.7656C559.724 27.7656 559.5 27.9895 559.5 28.2656V33.1094C559.5 33.3855 559.724 33.6094 560 33.6094V37.4531C559.724 37.4531 559.5 37.677 559.5 37.9531V42.7969C559.5 43.073 559.724 43.2969 560 43.2969V47.1406C559.724 47.1406 559.5 47.3645 559.5 47.6406V52.4844C559.5 52.7605 559.724 52.9844 560 52.9844V56.8281C559.724 56.8281 559.5 57.052 559.5 57.3281V62.1719C559.5 62.448 559.724 62.6719 560 62.6719V66.5156C559.724 66.5156 559.5 66.7395 559.5 67.0156V71.8594C559.5 72.1355 559.724 72.3594 560 72.3594V76.2031C559.724 76.2031 559.5 76.427 559.5 76.7031V81.5469C559.5 81.823 559.724 82.0469 560 82.0469V85.8906C559.724 85.8906 559.5 86.1145 559.5 86.3906V91.2344C559.5 91.5105 559.724 91.7344 560 91.7344V95.5781C559.724 95.5781 559.5 95.802 559.5 96.0781V100.922C559.5 101.198 559.724 101.422 560 101.422V105.266C559.724 105.266 559.5 105.489 559.5 105.766V110.609C559.5 110.886 559.724 111.109 560 111.109V114.953C559.724 114.953 559.5 115.177 559.5 115.453V120.297C559.5 120.573 559.724 120.797 560 120.797V124.641C559.724 124.641 559.5 124.864 559.5 125.141V129.984C559.5 130.261 559.724 130.484 560 130.484V134.328C559.724 134.328 559.5 134.552 559.5 134.828V139.672C559.5 139.948 559.724 140.172 560 140.172V144.016C559.724 144.016 559.5 144.239 559.5 144.516V149.359C559.5 149.636 559.724 149.859 560 149.859V153.703C559.724 153.703 559.5 153.927 559.5 154.203V159.047C559.5 159.323 559.724 159.547 560 159.547V163.391C559.724 163.391 559.5 163.614 559.5 163.891V168.734C559.5 169.011 559.724 169.234 560 169.234V173.078C559.724 173.078 559.5 173.302 559.5 173.578V175.5H557.5C557.224 175.5 557 175.724 557 176C557 176.276 557.224 176.5 557.5 176.5H559.5V178.422C559.5 178.698 559.724 178.922 560 178.922V182.766C559.724 182.766 559.5 182.989 559.5 183.266V188.109C559.5 188.386 559.724 188.609 560 188.609V192.453C559.724 192.453 559.5 192.677 559.5 192.953V197.797C559.5 198.073 559.724 198.297 560 198.297V202.141C559.724 202.141 559.5 202.364 559.5 202.641V207.484C559.5 207.761 559.724 207.984 560 207.984V211.828C559.724 211.828 559.5 212.052 559.5 212.328V217.172C559.5 217.448 559.724 217.672 560 217.672V221.516C559.724 221.516 559.5 221.739 559.5 222.016V226.859C559.5 227.136 559.724 227.359 560 227.359V231.203C559.724 231.203 559.5 231.427 559.5 231.703V236.547C559.5 236.823 559.724 237.047 560 237.047V240.891C559.724 240.891 559.5 241.114 559.5 241.391V246.234C559.5 246.511 559.724 246.734 560 246.734V250.578C559.724 250.578 559.5 250.802 559.5 251.078V255.922C559.5 256.198 559.724 256.422 560 256.422V260.266C559.724 260.266 559.5 260.489 559.5 260.766V265.609C559.5 265.886 559.724 266.109 560 266.109V269.953C559.724 269.953 559.5 270.177 559.5 270.453V275.297C559.5 275.573 559.724 275.797 560 275.797V279.641C559.724 279.641 559.5 279.865 559.5 280.141V284.984C559.5 285.261 559.724 285.484 560 285.484V289.328C559.724 289.328 559.5 289.552 559.5 289.828V294.672C559.5 294.948 559.724 295.172 560 295.172V299.016C559.724 299.016 559.5 299.24 559.5 299.516V304.359C559.5 304.636 559.724 304.859 560 304.859V308.703C559.724 308.703 559.5 308.927 559.5 309.203V314.047C559.5 314.323 559.724 314.547 560 314.547V318.391C559.724 318.391 559.5 318.615 559.5 318.891V323.734C559.5 324.011 559.724 324.234 560 324.234V328.078C559.724 328.078 559.5 328.302 559.5 328.578V331C559.5 331.908 559.441 332.802 559.327 333.678C559.291 333.95 559.481 334.199 559.752 334.238C559.519 335.742 559.127 337.194 558.592 338.574C558.339 338.473 558.05 338.594 557.945 338.847C557.254 340.513 556.349 342.069 555.265 343.48C555.098 343.697 555.137 344.008 555.352 344.177C554.41 345.345 553.345 346.41 552.177 347.352C552.008 347.137 551.697 347.098 551.48 347.265C550.069 348.349 548.513 349.254 546.847 349.945C546.594 350.05 546.473 350.339 546.574 350.592C545.193 351.127 543.742 351.519 542.238 351.752C542.199 351.481 541.95 351.291 541.678 351.327C540.802 351.441 539.908 351.5 539 351.5H536.521C536.245 351.5 536.021 351.724 536.021 352H532.062C532.062 351.724 531.839 351.5 531.562 351.5H526.604C526.328 351.5 526.104 351.724 526.104 352H522.146C522.146 351.724 521.922 351.5 521.646 351.5H516.688C516.411 351.5 516.188 351.724 516.188 352H512.229C512.229 351.724 512.005 351.5 511.729 351.5H506.771C506.495 351.5 506.271 351.724 506.271 352H502.312C502.312 351.724 502.089 351.5 501.812 351.5H496.854C496.578 351.5 496.354 351.724 496.354 352H492.396C492.396 351.724 492.172 351.5 491.896 351.5H486.938C486.661 351.5 486.438 351.724 486.438 352H482.479C482.479 351.724 482.255 351.5 481.979 351.5H477.021C476.745 351.5 476.521 351.724 476.521 352H472.562C472.562 351.724 472.339 351.5 472.062 351.5H467.104C466.828 351.5 466.604 351.724 466.604 352H462.646C462.646 351.724 462.422 351.5 462.146 351.5H457.188C456.911 351.5 456.688 351.724 456.688 352H452.729C452.729 351.724 452.505 351.5 452.229 351.5H447.271C446.995 351.5 446.771 351.724 446.771 352H442.812C442.812 351.724 442.589 351.5 442.312 351.5H437.354C437.078 351.5 436.854 351.724 436.854 352H432.896C432.896 351.724 432.672 351.5 432.396 351.5H427.438C427.161 351.5 426.938 351.724 426.938 352H422.979C422.979 351.724 422.755 351.5 422.479 351.5H420.5V349.485C420.5 349.209 420.276 348.985 420 348.985C419.724 348.985 419.5 349.209 419.5 349.485V351.5H417.5C417.224 351.5 417 351.724 417 352H413C413 351.724 412.776 351.5 412.5 351.5H407.5C407.224 351.5 407 351.724 407 352H403C403 351.724 402.776 351.5 402.5 351.5H397.5C397.224 351.5 397 351.724 397 352H393C393 351.724 392.776 351.5 392.5 351.5H387.5C387.224 351.5 387 351.724 387 352H383C383 351.724 382.776 351.5 382.5 351.5H377.5C377.224 351.5 377 351.724 377 352H373C373 351.724 372.776 351.5 372.5 351.5H367.5C367.224 351.5 367 351.724 367 352H363C363 351.724 362.776 351.5 362.5 351.5H357.5C357.224 351.5 357 351.724 357 352H353C353 351.724 352.776 351.5 352.5 351.5H347.5C347.224 351.5 347 351.724 347 352H343C343 351.724 342.776 351.5 342.5 351.5H337.5C337.224 351.5 337 351.724 337 352H333C333 351.724 332.776 351.5 332.5 351.5H327.5C327.224 351.5 327 351.724 327 352H323C323 351.724 322.776 351.5 322.5 351.5H317.5C317.224 351.5 317 351.724 317 352H313C313 351.724 312.776 351.5 312.5 351.5H307.5C307.224 351.5 307 351.724 307 352H303C303 351.724 302.776 351.5 302.5 351.5H297.5C297.224 351.5 297 351.724 297 352H293C293 351.724 292.776 351.5 292.5 351.5H287.5C287.224 351.5 287 351.724 287 352H283C283 351.724 282.776 351.5 282.5 351.5H280.5V349.485C280.5 349.209 280.276 348.985 280 348.985C279.724 348.985 279.5 349.209 279.5 349.485V351.5H277.5C277.224 351.5 277 351.724 277 352H273C273 351.724 272.776 351.5 272.5 351.5H267.5C267.224 351.5 267 351.724 267 352H263C263 351.724 262.776 351.5 262.5 351.5H257.5C257.224 351.5 257 351.724 257 352H253C253 351.724 252.776 351.5 252.5 351.5H247.5C247.224 351.5 247 351.724 247 352H243C243 351.724 242.776 351.5 242.5 351.5H237.5C237.224 351.5 237 351.724 237 352H233C233 351.724 232.776 351.5 232.5 351.5H227.5C227.224 351.5 227 351.724 227 352H223C223 351.724 222.776 351.5 222.5 351.5H217.5C217.224 351.5 217 351.724 217 352H213C213 351.724 212.776 351.5 212.5 351.5H207.5C207.224 351.5 207 351.724 207 352H203C203 351.724 202.776 351.5 202.5 351.5H197.5C197.224 351.5 197 351.724 197 352H193C193 351.724 192.776 351.5 192.5 351.5H187.5C187.224 351.5 187 351.724 187 352H183C183 351.724 182.776 351.5 182.5 351.5H177.5C177.224 351.5 177 351.724 177 352H173C173 351.724 172.776 351.5 172.5 351.5H167.5C167.224 351.5 167 351.724 167 352H163C163 351.724 162.776 351.5 162.5 351.5H157.5C157.224 351.5 157 351.724 157 352H153C153 351.724 152.776 351.5 152.5 351.5H147.5C147.224 351.5 147 351.724 147 352H143C143 351.724 142.776 351.5 142.5 351.5H140.5V349.485C140.5 349.209 140.276 348.985 140 348.985C139.724 348.985 139.5 349.209 139.5 349.485V351.5H137.521C137.245 351.5 137.021 351.724 137.021 352H133.063C133.063 351.724 132.839 351.5 132.563 351.5H127.604C127.328 351.5 127.104 351.724 127.104 352H123.146C123.146 351.724 122.922 351.5 122.646 351.5H117.688C117.411 351.5 117.188 351.724 117.188 352H113.229C113.229 351.724 113.005 351.5 112.729 351.5H107.771C107.495 351.5 107.271 351.724 107.271 352H103.312C103.312 351.724 103.089 351.5 102.812 351.5H97.8542C97.578 351.5 97.3542 351.724 97.3542 352H93.3958C93.3958 351.724 93.172 351.5 92.8958 351.5H87.9375C87.6613 351.5 87.4375 351.724 87.4375 352H83.4792C83.4792 351.724 83.2553 351.5 82.9792 351.5H78.0208C77.7447 351.5 77.5208 351.724 77.5208 352H73.5625C73.5625 351.724 73.3386 351.5 73.0625 351.5H68.1042C67.828 351.5 67.6042 351.724 67.6042 352H63.6458C63.6458 351.724 63.422 351.5 63.1458 351.5H58.1875C57.9114 351.5 57.6875 351.724 57.6875 352H53.7292C53.7292 351.724 53.5053 351.5 53.2292 351.5H48.2708C47.9947 351.5 47.7708 351.724 47.7708 352H43.8125C43.8125 351.724 43.5886 351.5 43.3125 351.5H38.3542C38.078 351.5 37.8542 351.724 37.8542 352H33.8958C33.8958 351.724 33.672 351.5 33.3958 351.5H28.4375C28.1614 351.5 27.9375 351.724 27.9375 352H23.9792C23.9792 351.724 23.7553 351.5 23.4792 351.5H21C20.0921 351.5 19.1982 351.441 18.3219 351.327C18.05 351.291 17.8007 351.481 17.7622 351.752C16.258 351.519 14.8065 351.127 13.4256 350.592C13.5273 350.339 13.4062 350.05 13.153 349.945C11.4867 349.254 9.93099 348.349 8.5202 347.265C8.3028 347.098 7.99182 347.137 7.82271 347.352C6.65495 346.41 5.59018 345.345 4.64796 344.177C4.86281 344.008 4.90213 343.697 4.73507 343.48C3.65093 342.069 2.74635 340.513 2.05535 338.847C1.95034 338.594 1.66127 338.473 1.40751 338.574C0.873296 337.194 0.480863 335.742 0.24807 334.238C0.51876 334.199 0.708758 333.95 0.673298 333.678C0.558993 332.802 0.5 331.908 0.5 331V328.578C0.5 328.302 0.276142 328.078 0 328.078V324.234C0.276142 324.234 0.5 324.011 0.5 323.734V318.891C0.5 318.615 0.276142 318.391 0 318.391V314.547C0.276142 314.547 0.5 314.323 0.5 314.047V309.203C0.5 308.927 0.276142 308.703 0 308.703V304.859C0.276142 304.859 0.5 304.636 0.5 304.359V299.516C0.5 299.24 0.276142 299.016 0 299.016V295.172C0.276142 295.172 0.5 294.948 0.5 294.672V289.828C0.5 289.552 0.276142 289.328 0 289.328V285.484C0.276142 285.484 0.5 285.261 0.5 284.984V280.141C0.5 279.865 0.276142 279.641 0 279.641V275.797C0.276142 275.797 0.5 275.573 0.5 275.297V270.453C0.5 270.177 0.276142 269.953 0 269.953V266.109C0.276142 266.109 0.5 265.886 0.5 265.609V260.766C0.5 260.49 0.276142 260.266 0 260.266V256.422C0.276142 256.422 0.5 256.198 0.5 255.922V251.078C0.5 250.802 0.276142 250.578 0 250.578V246.734C0.276142 246.734 0.5 246.511 0.5 246.234V241.391C0.5 241.114 0.276142 240.891 0 240.891V237.047C0.276142 237.047 0.5 236.823 0.5 236.547V231.703C0.5 231.427 0.276142 231.203 0 231.203V227.359C0.276142 227.359 0.5 227.136 0.5 226.859V222.016C0.5 221.739 0.276142 221.516 0 221.516V217.672C0.276142 217.672 0.5 217.448 0.5 217.172V212.328C0.5 212.052 0.276142 211.828 0 211.828V207.984C0.276142 207.984 0.5 207.761 0.5 207.484V202.641C0.5 202.364 0.276142 202.141 0 202.141V198.297C0.276142 198.297 0.5 198.073 0.5 197.797V192.953C0.5 192.677 0.276142 192.453 0 192.453V188.609C0.276142 188.609 0.5 188.386 0.5 188.109V183.266C0.5 182.989 0.276142 182.766 0 182.766V178.922ZM7.5 175.5C7.22386 175.5 7 175.724 7 176C7 176.276 7.22386 176.5 7.5 176.5H12.5C12.7761 176.5 13 176.276 13 176C13 175.724 12.7761 175.5 12.5 175.5H7.5ZM17.5 175.5C17.2239 175.5 17 175.724 17 176C17 176.276 17.2239 176.5 17.5 176.5H22.5C22.7761 176.5 23 176.276 23 176C23 175.724 22.7761 175.5 22.5 175.5H17.5ZM27.5 175.5C27.2239 175.5 27 175.724 27 176C27 176.276 27.2239 176.5 27.5 176.5H32.5C32.7761 176.5 33 176.276 33 176C33 175.724 32.7761 175.5 32.5 175.5H27.5ZM37.5 175.5C37.2239 175.5 37 175.724 37 176C37 176.276 37.2239 176.5 37.5 176.5H42.5C42.7761 176.5 43 176.276 43 176C43 175.724 42.7761 175.5 42.5 175.5H37.5ZM47.5 175.5C47.2239 175.5 47 175.724 47 176C47 176.276 47.2239 176.5 47.5 176.5H52.5C52.7761 176.5 53 176.276 53 176C53 175.724 52.7761 175.5 52.5 175.5H47.5ZM57.5 175.5C57.2239 175.5 57 175.724 57 176C57 176.276 57.2239 176.5 57.5 176.5H62.5C62.7761 176.5 63 176.276 63 176C63 175.724 62.7761 175.5 62.5 175.5H57.5ZM67.5 175.5C67.2239 175.5 67 175.724 67 176C67 176.276 67.2239 176.5 67.5 176.5H72.5C72.7761 176.5 73 176.276 73 176C73 175.724 72.7761 175.5 72.5 175.5H67.5ZM77.5 175.5C77.2239 175.5 77 175.724 77 176C77 176.276 77.2239 176.5 77.5 176.5H82.5C82.7761 176.5 83 176.276 83 176C83 175.724 82.7761 175.5 82.5 175.5H77.5ZM87.5 175.5C87.2239 175.5 87 175.724 87 176C87 176.276 87.2239 176.5 87.5 176.5H92.5C92.7761 176.5 93 176.276 93 176C93 175.724 92.7761 175.5 92.5 175.5H87.5ZM97.5 175.5C97.2239 175.5 97 175.724 97 176C97 176.276 97.2239 176.5 97.5 176.5H102.5C102.776 176.5 103 176.276 103 176C103 175.724 102.776 175.5 102.5 175.5H97.5ZM107.5 175.5C107.224 175.5 107 175.724 107 176C107 176.276 107.224 176.5 107.5 176.5H112.5C112.776 176.5 113 176.276 113 176C113 175.724 112.776 175.5 112.5 175.5H107.5ZM117.5 175.5C117.224 175.5 117 175.724 117 176C117 176.276 117.224 176.5 117.5 176.5H122.5C122.776 176.5 123 176.276 123 176C123 175.724 122.776 175.5 122.5 175.5H117.5ZM127.5 175.5C127.224 175.5 127 175.724 127 176C127 176.276 127.224 176.5 127.5 176.5H132.5C132.776 176.5 133 176.276 133 176C133 175.724 132.776 175.5 132.5 175.5H127.5ZM137.5 175.5C137.224 175.5 137 175.724 137 176C137 176.276 137.224 176.5 137.5 176.5H142.5C142.776 176.5 143 176.276 143 176C143 175.724 142.776 175.5 142.5 175.5H137.5ZM147.5 175.5C147.224 175.5 147 175.724 147 176C147 176.276 147.224 176.5 147.5 176.5H152.5C152.776 176.5 153 176.276 153 176C153 175.724 152.776 175.5 152.5 175.5H147.5ZM157.5 175.5C157.224 175.5 157 175.724 157 176C157 176.276 157.224 176.5 157.5 176.5H162.5C162.776 176.5 163 176.276 163 176C163 175.724 162.776 175.5 162.5 175.5H157.5ZM167.5 175.5C167.224 175.5 167 175.724 167 176C167 176.276 167.224 176.5 167.5 176.5H172.5C172.776 176.5 173 176.276 173 176C173 175.724 172.776 175.5 172.5 175.5H167.5ZM177.5 175.5C177.224 175.5 177 175.724 177 176C177 176.276 177.224 176.5 177.5 176.5H182.5C182.776 176.5 183 176.276 183 176C183 175.724 182.776 175.5 182.5 175.5H177.5ZM187.5 175.5C187.224 175.5 187 175.724 187 176C187 176.276 187.224 176.5 187.5 176.5H192.5C192.776 176.5 193 176.276 193 176C193 175.724 192.776 175.5 192.5 175.5H187.5ZM197.5 175.5C197.224 175.5 197 175.724 197 176C197 176.276 197.224 176.5 197.5 176.5H202.5C202.776 176.5 203 176.276 203 176C203 175.724 202.776 175.5 202.5 175.5H197.5ZM207.5 175.5C207.224 175.5 207 175.724 207 176C207 176.276 207.224 176.5 207.5 176.5H212.5C212.776 176.5 213 176.276 213 176C213 175.724 212.776 175.5 212.5 175.5H207.5ZM217.5 175.5C217.224 175.5 217 175.724 217 176C217 176.276 217.224 176.5 217.5 176.5H222.5C222.776 176.5 223 176.276 223 176C223 175.724 222.776 175.5 222.5 175.5H217.5ZM227.5 175.5C227.224 175.5 227 175.724 227 176C227 176.276 227.224 176.5 227.5 176.5H232.5C232.776 176.5 233 176.276 233 176C233 175.724 232.776 175.5 232.5 175.5H227.5ZM237.5 175.5C237.224 175.5 237 175.724 237 176C237 176.276 237.224 176.5 237.5 176.5H242.5C242.776 176.5 243 176.276 243 176C243 175.724 242.776 175.5 242.5 175.5H237.5ZM247.5 175.5C247.224 175.5 247 175.724 247 176C247 176.276 247.224 176.5 247.5 176.5H252.5C252.776 176.5 253 176.276 253 176C253 175.724 252.776 175.5 252.5 175.5H247.5ZM257.5 175.5C257.224 175.5 257 175.724 257 176C257 176.276 257.224 176.5 257.5 176.5H262.5C262.776 176.5 263 176.276 263 176C263 175.724 262.776 175.5 262.5 175.5H257.5ZM267.5 175.5C267.224 175.5 267 175.724 267 176C267 176.276 267.224 176.5 267.5 176.5H272.5C272.776 176.5 273 176.276 273 176C273 175.724 272.776 175.5 272.5 175.5H267.5ZM277.5 175.5C277.224 175.5 277 175.724 277 176C277 176.276 277.224 176.5 277.5 176.5H282.5C282.776 176.5 283 176.276 283 176C283 175.724 282.776 175.5 282.5 175.5H277.5ZM287.5 175.5C287.224 175.5 287 175.724 287 176C287 176.276 287.224 176.5 287.5 176.5H292.5C292.776 176.5 293 176.276 293 176C293 175.724 292.776 175.5 292.5 175.5H287.5ZM297.5 175.5C297.224 175.5 297 175.724 297 176C297 176.276 297.224 176.5 297.5 176.5H302.5C302.776 176.5 303 176.276 303 176C303 175.724 302.776 175.5 302.5 175.5H297.5ZM307.5 175.5C307.224 175.5 307 175.724 307 176C307 176.276 307.224 176.5 307.5 176.5H312.5C312.776 176.5 313 176.276 313 176C313 175.724 312.776 175.5 312.5 175.5H307.5ZM317.5 175.5C317.224 175.5 317 175.724 317 176C317 176.276 317.224 176.5 317.5 176.5H322.5C322.776 176.5 323 176.276 323 176C323 175.724 322.776 175.5 322.5 175.5H317.5ZM327.5 175.5C327.224 175.5 327 175.724 327 176C327 176.276 327.224 176.5 327.5 176.5H332.5C332.776 176.5 333 176.276 333 176C333 175.724 332.776 175.5 332.5 175.5H327.5ZM337.5 175.5C337.224 175.5 337 175.724 337 176C337 176.276 337.224 176.5 337.5 176.5H342.5C342.776 176.5 343 176.276 343 176C343 175.724 342.776 175.5 342.5 175.5H337.5ZM347.5 175.5C347.224 175.5 347 175.724 347 176C347 176.276 347.224 176.5 347.5 176.5H352.5C352.776 176.5 353 176.276 353 176C353 175.724 352.776 175.5 352.5 175.5H347.5ZM357.5 175.5C357.224 175.5 357 175.724 357 176C357 176.276 357.224 176.5 357.5 176.5H362.5C362.776 176.5 363 176.276 363 176C363 175.724 362.776 175.5 362.5 175.5H357.5ZM367.5 175.5C367.224 175.5 367 175.724 367 176C367 176.276 367.224 176.5 367.5 176.5H372.5C372.776 176.5 373 176.276 373 176C373 175.724 372.776 175.5 372.5 175.5H367.5ZM377.5 175.5C377.224 175.5 377 175.724 377 176C377 176.276 377.224 176.5 377.5 176.5H382.5C382.776 176.5 383 176.276 383 176C383 175.724 382.776 175.5 382.5 175.5H377.5ZM387.5 175.5C387.224 175.5 387 175.724 387 176C387 176.276 387.224 176.5 387.5 176.5H392.5C392.776 176.5 393 176.276 393 176C393 175.724 392.776 175.5 392.5 175.5H387.5ZM397.5 175.5C397.224 175.5 397 175.724 397 176C397 176.276 397.224 176.5 397.5 176.5H402.5C402.776 176.5 403 176.276 403 176C403 175.724 402.776 175.5 402.5 175.5H397.5ZM407.5 175.5C407.224 175.5 407 175.724 407 176C407 176.276 407.224 176.5 407.5 176.5H412.5C412.776 176.5 413 176.276 413 176C413 175.724 412.776 175.5 412.5 175.5H407.5ZM417.5 175.5C417.224 175.5 417 175.724 417 176C417 176.276 417.224 176.5 417.5 176.5H422.5C422.776 176.5 423 176.276 423 176C423 175.724 422.776 175.5 422.5 175.5H417.5ZM427.5 175.5C427.224 175.5 427 175.724 427 176C427 176.276 427.224 176.5 427.5 176.5H432.5C432.776 176.5 433 176.276 433 176C433 175.724 432.776 175.5 432.5 175.5H427.5ZM437.5 175.5C437.224 175.5 437 175.724 437 176C437 176.276 437.224 176.5 437.5 176.5H442.5C442.776 176.5 443 176.276 443 176C443 175.724 442.776 175.5 442.5 175.5H437.5ZM447.5 175.5C447.224 175.5 447 175.724 447 176C447 176.276 447.224 176.5 447.5 176.5H452.5C452.776 176.5 453 176.276 453 176C453 175.724 452.776 175.5 452.5 175.5H447.5ZM457.5 175.5C457.224 175.5 457 175.724 457 176C457 176.276 457.224 176.5 457.5 176.5H462.5C462.776 176.5 463 176.276 463 176C463 175.724 462.776 175.5 462.5 175.5H457.5ZM467.5 175.5C467.224 175.5 467 175.724 467 176C467 176.276 467.224 176.5 467.5 176.5H472.5C472.776 176.5 473 176.276 473 176C473 175.724 472.776 175.5 472.5 175.5H467.5ZM477.5 175.5C477.224 175.5 477 175.724 477 176C477 176.276 477.224 176.5 477.5 176.5H482.5C482.776 176.5 483 176.276 483 176C483 175.724 482.776 175.5 482.5 175.5H477.5ZM487.5 175.5C487.224 175.5 487 175.724 487 176C487 176.276 487.224 176.5 487.5 176.5H492.5C492.776 176.5 493 176.276 493 176C493 175.724 492.776 175.5 492.5 175.5H487.5ZM497.5 175.5C497.224 175.5 497 175.724 497 176C497 176.276 497.224 176.5 497.5 176.5H502.5C502.776 176.5 503 176.276 503 176C503 175.724 502.776 175.5 502.5 175.5H497.5ZM507.5 175.5C507.224 175.5 507 175.724 507 176C507 176.276 507.224 176.5 507.5 176.5H512.5C512.776 176.5 513 176.276 513 176C513 175.724 512.776 175.5 512.5 175.5H507.5ZM517.5 175.5C517.224 175.5 517 175.724 517 176C517 176.276 517.224 176.5 517.5 176.5H522.5C522.776 176.5 523 176.276 523 176C523 175.724 522.776 175.5 522.5 175.5H517.5ZM527.5 175.5C527.224 175.5 527 175.724 527 176C527 176.276 527.224 176.5 527.5 176.5H532.5C532.776 176.5 533 176.276 533 176C533 175.724 532.776 175.5 532.5 175.5H527.5ZM537.5 175.5C537.224 175.5 537 175.724 537 176C537 176.276 537.224 176.5 537.5 176.5H542.5C542.776 176.5 543 176.276 543 176C543 175.724 542.776 175.5 542.5 175.5H537.5ZM547.5 175.5C547.224 175.5 547 175.724 547 176C547 176.276 547.224 176.5 547.5 176.5H552.5C552.776 176.5 553 176.276 553 176C553 175.724 552.776 175.5 552.5 175.5H547.5ZM280.5 7.54286C280.5 7.26672 280.276 7.04286 280 7.04286C279.724 7.04286 279.5 7.26672 279.5 7.54286V12.5714C279.5 12.8476 279.724 13.0714 280 13.0714C280.276 13.0714 280.5 12.8476 280.5 12.5714V7.54286ZM280.5 17.6C280.5 17.3239 280.276 17.1 280 17.1C279.724 17.1 279.5 17.3239 279.5 17.6V22.6286C279.5 22.9047 279.724 23.1286 280 23.1286C280.276 23.1286 280.5 22.9047 280.5 22.6286V17.6ZM280.5 27.6571C280.5 27.381 280.276 27.1571 280 27.1571C279.724 27.1571 279.5 27.381 279.5 27.6571V32.6857C279.5 32.9619 279.724 33.1857 280 33.1857C280.276 33.1857 280.5 32.9619 280.5 32.6857V27.6571ZM280.5 37.7143C280.5 37.4381 280.276 37.2143 280 37.2143C279.724 37.2143 279.5 37.4381 279.5 37.7143V42.7429C279.5 43.019 279.724 43.2429 280 43.2429C280.276 43.2429 280.5 43.019 280.5 42.7429V37.7143ZM280.5 47.7714C280.5 47.4953 280.276 47.2714 280 47.2714C279.724 47.2714 279.5 47.4953 279.5 47.7714V52.8C279.5 53.0761 279.724 53.3 280 53.3C280.276 53.3 280.5 53.0761 280.5 52.8V47.7714ZM280.5 57.8286C280.5 57.5524 280.276 57.3286 280 57.3286C279.724 57.3286 279.5 57.5524 279.5 57.8286V62.8572C279.5 63.1333 279.724 63.3572 280 63.3572C280.276 63.3572 280.5 63.1333 280.5 62.8572V57.8286ZM280.5 67.8857C280.5 67.6096 280.276 67.3857 280 67.3857C279.724 67.3857 279.5 67.6096 279.5 67.8857V72.9143C279.5 73.1904 279.724 73.4143 280 73.4143C280.276 73.4143 280.5 73.1904 280.5 72.9143V67.8857ZM280.5 77.9429C280.5 77.6667 280.276 77.4429 280 77.4429C279.724 77.4429 279.5 77.6667 279.5 77.9429V82.9714C279.5 83.2476 279.724 83.4714 280 83.4714C280.276 83.4714 280.5 83.2476 280.5 82.9714V77.9429ZM280.5 88C280.5 87.7239 280.276 87.5 280 87.5C279.724 87.5 279.5 87.7239 279.5 88V93.0286C279.5 93.3047 279.724 93.5286 280 93.5286C280.276 93.5286 280.5 93.3047 280.5 93.0286V88ZM280.5 98.0572C280.5 97.781 280.276 97.5572 280 97.5572C279.724 97.5572 279.5 97.781 279.5 98.0572V103.086C279.5 103.362 279.724 103.586 280 103.586C280.276 103.586 280.5 103.362 280.5 103.086V98.0572ZM280.5 108.114C280.5 107.838 280.276 107.614 280 107.614C279.724 107.614 279.5 107.838 279.5 108.114V113.143C279.5 113.419 279.724 113.643 280 113.643C280.276 113.643 280.5 113.419 280.5 113.143V108.114ZM280.5 118.171C280.5 117.895 280.276 117.671 280 117.671C279.724 117.671 279.5 117.895 279.5 118.171V123.2C279.5 123.476 279.724 123.7 280 123.7C280.276 123.7 280.5 123.476 280.5 123.2V118.171ZM280.5 128.229C280.5 127.952 280.276 127.729 280 127.729C279.724 127.729 279.5 127.952 279.5 128.229V133.257C279.5 133.533 279.724 133.757 280 133.757C280.276 133.757 280.5 133.533 280.5 133.257V128.229ZM280.5 138.286C280.5 138.01 280.276 137.786 280 137.786C279.724 137.786 279.5 138.01 279.5 138.286V143.314C279.5 143.59 279.724 143.814 280 143.814C280.276 143.814 280.5 143.59 280.5 143.314V138.286ZM280.5 148.343C280.5 148.067 280.276 147.843 280 147.843C279.724 147.843 279.5 148.067 279.5 148.343V153.371C279.5 153.648 279.724 153.871 280 153.871C280.276 153.871 280.5 153.648 280.5 153.371V148.343ZM280.5 158.4C280.5 158.124 280.276 157.9 280 157.9C279.724 157.9 279.5 158.124 279.5 158.4V163.429C279.5 163.705 279.724 163.929 280 163.929C280.276 163.929 280.5 163.705 280.5 163.429V158.4ZM280.5 168.457C280.5 168.181 280.276 167.957 280 167.957C279.724 167.957 279.5 168.181 279.5 168.457V173.486C279.5 173.762 279.724 173.986 280 173.986C280.276 173.986 280.5 173.762 280.5 173.486V168.457ZM280.5 178.514C280.5 178.238 280.276 178.014 280 178.014C279.724 178.014 279.5 178.238 279.5 178.514V183.543C279.5 183.819 279.724 184.043 280 184.043C280.276 184.043 280.5 183.819 280.5 183.543V178.514ZM280.5 188.571C280.5 188.295 280.276 188.071 280 188.071C279.724 188.071 279.5 188.295 279.5 188.571V193.6C279.5 193.876 279.724 194.1 280 194.1C280.276 194.1 280.5 193.876 280.5 193.6V188.571ZM280.5 198.628C280.5 198.352 280.276 198.128 280 198.128C279.724 198.128 279.5 198.352 279.5 198.628V203.657C279.5 203.933 279.724 204.157 280 204.157C280.276 204.157 280.5 203.933 280.5 203.657V198.628ZM280.5 208.686C280.5 208.409 280.276 208.186 280 208.186C279.724 208.186 279.5 208.409 279.5 208.686V213.714C279.5 213.99 279.724 214.214 280 214.214C280.276 214.214 280.5 213.99 280.5 213.714V208.686ZM280.5 218.743C280.5 218.467 280.276 218.243 280 218.243C279.724 218.243 279.5 218.467 279.5 218.743V223.771C279.5 224.047 279.724 224.271 280 224.271C280.276 224.271 280.5 224.047 280.5 223.771V218.743ZM280.5 228.8C280.5 228.524 280.276 228.3 280 228.3C279.724 228.3 279.5 228.524 279.5 228.8V233.828C279.5 234.105 279.724 234.328 280 234.328C280.276 234.328 280.5 234.105 280.5 233.828V228.8ZM280.5 238.857C280.5 238.581 280.276 238.357 280 238.357C279.724 238.357 279.5 238.581 279.5 238.857V243.886C279.5 244.162 279.724 244.386 280 244.386C280.276 244.386 280.5 244.162 280.5 243.886V238.857ZM280.5 248.914C280.5 248.638 280.276 248.414 280 248.414C279.724 248.414 279.5 248.638 279.5 248.914V253.943C279.5 254.219 279.724 254.443 280 254.443C280.276 254.443 280.5 254.219 280.5 253.943V248.914ZM280.5 258.971C280.5 258.695 280.276 258.471 280 258.471C279.724 258.471 279.5 258.695 279.5 258.971V264C279.5 264.276 279.724 264.5 280 264.5C280.276 264.5 280.5 264.276 280.5 264V258.971ZM280.5 269.028C280.5 268.752 280.276 268.528 280 268.528C279.724 268.528 279.5 268.752 279.5 269.028V274.057C279.5 274.333 279.724 274.557 280 274.557C280.276 274.557 280.5 274.333 280.5 274.057V269.028ZM280.5 279.086C280.5 278.809 280.276 278.586 280 278.586C279.724 278.586 279.5 278.809 279.5 279.086V284.114C279.5 284.39 279.724 284.614 280 284.614C280.276 284.614 280.5 284.39 280.5 284.114V279.086ZM280.5 289.143C280.5 288.866 280.276 288.643 280 288.643C279.724 288.643 279.5 288.866 279.5 289.143V294.171C279.5 294.447 279.724 294.671 280 294.671C280.276 294.671 280.5 294.447 280.5 294.171V289.143ZM280.5 299.2C280.5 298.924 280.276 298.7 280 298.7C279.724 298.7 279.5 298.924 279.5 299.2V304.228C279.5 304.504 279.724 304.728 280 304.728C280.276 304.728 280.5 304.504 280.5 304.228V299.2ZM280.5 309.257C280.5 308.981 280.276 308.757 280 308.757C279.724 308.757 279.5 308.981 279.5 309.257V314.285C279.5 314.562 279.724 314.785 280 314.785C280.276 314.785 280.5 314.562 280.5 314.285V309.257ZM280.5 319.314C280.5 319.038 280.276 318.814 280 318.814C279.724 318.814 279.5 319.038 279.5 319.314V324.343C279.5 324.619 279.724 324.843 280 324.843C280.276 324.843 280.5 324.619 280.5 324.343V319.314ZM280.5 329.371C280.5 329.095 280.276 328.871 280 328.871C279.724 328.871 279.5 329.095 279.5 329.371V334.4C279.5 334.676 279.724 334.9 280 334.9C280.276 334.9 280.5 334.676 280.5 334.4V329.371ZM280.5 339.428C280.5 339.152 280.276 338.928 280 338.928C279.724 338.928 279.5 339.152 279.5 339.428V344.457C279.5 344.733 279.724 344.957 280 344.957C280.276 344.957 280.5 344.733 280.5 344.457V339.428ZM420.5 7.54286C420.5 7.26672 420.276 7.04286 420 7.04286C419.724 7.04286 419.5 7.26672 419.5 7.54286V12.5714C419.5 12.8476 419.724 13.0714 420 13.0714C420.276 13.0714 420.5 12.8476 420.5 12.5714V7.54286ZM420.5 17.6C420.5 17.3239 420.276 17.1 420 17.1C419.724 17.1 419.5 17.3239 419.5 17.6V22.6286C419.5 22.9047 419.724 23.1286 420 23.1286C420.276 23.1286 420.5 22.9047 420.5 22.6286V17.6ZM420.5 27.6571C420.5 27.381 420.276 27.1571 420 27.1571C419.724 27.1571 419.5 27.381 419.5 27.6571V32.6857C419.5 32.9619 419.724 33.1857 420 33.1857C420.276 33.1857 420.5 32.9619 420.5 32.6857V27.6571ZM420.5 37.7143C420.5 37.4381 420.276 37.2143 420 37.2143C419.724 37.2143 419.5 37.4381 419.5 37.7143V42.7429C419.5 43.019 419.724 43.2429 420 43.2429C420.276 43.2429 420.5 43.019 420.5 42.7429V37.7143ZM420.5 47.7714C420.5 47.4953 420.276 47.2714 420 47.2714C419.724 47.2714 419.5 47.4953 419.5 47.7714V52.8C419.5 53.0761 419.724 53.3 420 53.3C420.276 53.3 420.5 53.0761 420.5 52.8V47.7714ZM420.5 57.8286C420.5 57.5524 420.276 57.3286 420 57.3286C419.724 57.3286 419.5 57.5524 419.5 57.8286V62.8572C419.5 63.1333 419.724 63.3572 420 63.3572C420.276 63.3572 420.5 63.1333 420.5 62.8572V57.8286ZM420.5 67.8857C420.5 67.6096 420.276 67.3857 420 67.3857C419.724 67.3857 419.5 67.6096 419.5 67.8857V72.9143C419.5 73.1904 419.724 73.4143 420 73.4143C420.276 73.4143 420.5 73.1904 420.5 72.9143V67.8857ZM420.5 77.9429C420.5 77.6667 420.276 77.4429 420 77.4429C419.724 77.4429 419.5 77.6667 419.5 77.9429V82.9714C419.5 83.2476 419.724 83.4714 420 83.4714C420.276 83.4714 420.5 83.2476 420.5 82.9714V77.9429ZM420.5 88C420.5 87.7239 420.276 87.5 420 87.5C419.724 87.5 419.5 87.7239 419.5 88V93.0286C419.5 93.3047 419.724 93.5286 420 93.5286C420.276 93.5286 420.5 93.3047 420.5 93.0286V88ZM420.5 98.0572C420.5 97.781 420.276 97.5572 420 97.5572C419.724 97.5572 419.5 97.781 419.5 98.0572V103.086C419.5 103.362 419.724 103.586 420 103.586C420.276 103.586 420.5 103.362 420.5 103.086V98.0572ZM420.5 108.114C420.5 107.838 420.276 107.614 420 107.614C419.724 107.614 419.5 107.838 419.5 108.114V113.143C419.5 113.419 419.724 113.643 420 113.643C420.276 113.643 420.5 113.419 420.5 113.143V108.114ZM420.5 118.171C420.5 117.895 420.276 117.671 420 117.671C419.724 117.671 419.5 117.895 419.5 118.171V123.2C419.5 123.476 419.724 123.7 420 123.7C420.276 123.7 420.5 123.476 420.5 123.2V118.171ZM420.5 128.229C420.5 127.952 420.276 127.729 420 127.729C419.724 127.729 419.5 127.952 419.5 128.229V133.257C419.5 133.533 419.724 133.757 420 133.757C420.276 133.757 420.5 133.533 420.5 133.257V128.229ZM420.5 138.286C420.5 138.01 420.276 137.786 420 137.786C419.724 137.786 419.5 138.01 419.5 138.286V143.314C419.5 143.59 419.724 143.814 420 143.814C420.276 143.814 420.5 143.59 420.5 143.314V138.286ZM420.5 148.343C420.5 148.067 420.276 147.843 420 147.843C419.724 147.843 419.5 148.067 419.5 148.343V153.371C419.5 153.648 419.724 153.871 420 153.871C420.276 153.871 420.5 153.648 420.5 153.371V148.343ZM420.5 158.4C420.5 158.124 420.276 157.9 420 157.9C419.724 157.9 419.5 158.124 419.5 158.4V163.429C419.5 163.705 419.724 163.929 420 163.929C420.276 163.929 420.5 163.705 420.5 163.429V158.4ZM420.5 168.457C420.5 168.181 420.276 167.957 420 167.957C419.724 167.957 419.5 168.181 419.5 168.457V173.486C419.5 173.762 419.724 173.986 420 173.986C420.276 173.986 420.5 173.762 420.5 173.486V168.457ZM420.5 178.514C420.5 178.238 420.276 178.014 420 178.014C419.724 178.014 419.5 178.238 419.5 178.514V183.543C419.5 183.819 419.724 184.043 420 184.043C420.276 184.043 420.5 183.819 420.5 183.543V178.514ZM420.5 188.571C420.5 188.295 420.276 188.071 420 188.071C419.724 188.071 419.5 188.295 419.5 188.571V193.6C419.5 193.876 419.724 194.1 420 194.1C420.276 194.1 420.5 193.876 420.5 193.6V188.571ZM420.5 198.628C420.5 198.352 420.276 198.128 420 198.128C419.724 198.128 419.5 198.352 419.5 198.628V203.657C419.5 203.933 419.724 204.157 420 204.157C420.276 204.157 420.5 203.933 420.5 203.657V198.628ZM420.5 208.686C420.5 208.409 420.276 208.186 420 208.186C419.724 208.186 419.5 208.409 419.5 208.686V213.714C419.5 213.99 419.724 214.214 420 214.214C420.276 214.214 420.5 213.99 420.5 213.714V208.686ZM420.5 218.743C420.5 218.467 420.276 218.243 420 218.243C419.724 218.243 419.5 218.467 419.5 218.743V223.771C419.5 224.047 419.724 224.271 420 224.271C420.276 224.271 420.5 224.047 420.5 223.771V218.743ZM420.5 228.8C420.5 228.524 420.276 228.3 420 228.3C419.724 228.3 419.5 228.524 419.5 228.8V233.828C419.5 234.105 419.724 234.328 420 234.328C420.276 234.328 420.5 234.105 420.5 233.828V228.8ZM420.5 238.857C420.5 238.581 420.276 238.357 420 238.357C419.724 238.357 419.5 238.581 419.5 238.857V243.886C419.5 244.162 419.724 244.386 420 244.386C420.276 244.386 420.5 244.162 420.5 243.886V238.857ZM420.5 248.914C420.5 248.638 420.276 248.414 420 248.414C419.724 248.414 419.5 248.638 419.5 248.914V253.943C419.5 254.219 419.724 254.443 420 254.443C420.276 254.443 420.5 254.219 420.5 253.943V248.914ZM420.5 258.971C420.5 258.695 420.276 258.471 420 258.471C419.724 258.471 419.5 258.695 419.5 258.971V264C419.5 264.276 419.724 264.5 420 264.5C420.276 264.5 420.5 264.276 420.5 264V258.971ZM420.5 269.028C420.5 268.752 420.276 268.528 420 268.528C419.724 268.528 419.5 268.752 419.5 269.028V274.057C419.5 274.333 419.724 274.557 420 274.557C420.276 274.557 420.5 274.333 420.5 274.057V269.028ZM420.5 279.086C420.5 278.809 420.276 278.586 420 278.586C419.724 278.586 419.5 278.809 419.5 279.086V284.114C419.5 284.39 419.724 284.614 420 284.614C420.276 284.614 420.5 284.39 420.5 284.114V279.086ZM420.5 289.143C420.5 288.866 420.276 288.643 420 288.643C419.724 288.643 419.5 288.866 419.5 289.143V294.171C419.5 294.447 419.724 294.671 420 294.671C420.276 294.671 420.5 294.447 420.5 294.171V289.143ZM420.5 299.2C420.5 298.924 420.276 298.7 420 298.7C419.724 298.7 419.5 298.924 419.5 299.2V304.228C419.5 304.504 419.724 304.728 420 304.728C420.276 304.728 420.5 304.504 420.5 304.228V299.2ZM420.5 309.257C420.5 308.981 420.276 308.757 420 308.757C419.724 308.757 419.5 308.981 419.5 309.257V314.285C419.5 314.562 419.724 314.785 420 314.785C420.276 314.785 420.5 314.562 420.5 314.285V309.257ZM420.5 319.314C420.5 319.038 420.276 318.814 420 318.814C419.724 318.814 419.5 319.038 419.5 319.314V324.343C419.5 324.619 419.724 324.843 420 324.843C420.276 324.843 420.5 324.619 420.5 324.343V319.314ZM420.5 329.371C420.5 329.095 420.276 328.871 420 328.871C419.724 328.871 419.5 329.095 419.5 329.371V334.4C419.5 334.676 419.724 334.9 420 334.9C420.276 334.9 420.5 334.676 420.5 334.4V329.371ZM420.5 339.428C420.5 339.152 420.276 338.928 420 338.928C419.724 338.928 419.5 339.152 419.5 339.428V344.457C419.5 344.733 419.724 344.957 420 344.957C420.276 344.957 420.5 344.733 420.5 344.457V339.428ZM140.5 7.54286C140.5 7.26672 140.276 7.04286 140 7.04286C139.724 7.04286 139.5 7.26672 139.5 7.54286V12.5714C139.5 12.8476 139.724 13.0714 140 13.0714C140.276 13.0714 140.5 12.8476 140.5 12.5714V7.54286ZM140.5 17.6C140.5 17.3239 140.276 17.1 140 17.1C139.724 17.1 139.5 17.3239 139.5 17.6V22.6286C139.5 22.9047 139.724 23.1286 140 23.1286C140.276 23.1286 140.5 22.9047 140.5 22.6286V17.6ZM140.5 27.6571C140.5 27.381 140.276 27.1571 140 27.1571C139.724 27.1571 139.5 27.381 139.5 27.6571V32.6857C139.5 32.9619 139.724 33.1857 140 33.1857C140.276 33.1857 140.5 32.9619 140.5 32.6857V27.6571ZM140.5 37.7143C140.5 37.4381 140.276 37.2143 140 37.2143C139.724 37.2143 139.5 37.4381 139.5 37.7143V42.7429C139.5 43.019 139.724 43.2429 140 43.2429C140.276 43.2429 140.5 43.019 140.5 42.7429V37.7143ZM140.5 47.7714C140.5 47.4953 140.276 47.2714 140 47.2714C139.724 47.2714 139.5 47.4953 139.5 47.7714V52.8C139.5 53.0761 139.724 53.3 140 53.3C140.276 53.3 140.5 53.0761 140.5 52.8V47.7714ZM140.5 57.8286C140.5 57.5524 140.276 57.3286 140 57.3286C139.724 57.3286 139.5 57.5524 139.5 57.8286V62.8572C139.5 63.1333 139.724 63.3572 140 63.3572C140.276 63.3572 140.5 63.1333 140.5 62.8572V57.8286ZM140.5 67.8857C140.5 67.6096 140.276 67.3857 140 67.3857C139.724 67.3857 139.5 67.6096 139.5 67.8857V72.9143C139.5 73.1904 139.724 73.4143 140 73.4143C140.276 73.4143 140.5 73.1904 140.5 72.9143V67.8857ZM140.5 77.9429C140.5 77.6667 140.276 77.4429 140 77.4429C139.724 77.4429 139.5 77.6667 139.5 77.9429V82.9714C139.5 83.2476 139.724 83.4714 140 83.4714C140.276 83.4714 140.5 83.2476 140.5 82.9714V77.9429ZM140.5 88C140.5 87.7239 140.276 87.5 140 87.5C139.724 87.5 139.5 87.7239 139.5 88V93.0286C139.5 93.3047 139.724 93.5286 140 93.5286C140.276 93.5286 140.5 93.3047 140.5 93.0286V88ZM140.5 98.0572C140.5 97.781 140.276 97.5572 140 97.5572C139.724 97.5572 139.5 97.781 139.5 98.0572V103.086C139.5 103.362 139.724 103.586 140 103.586C140.276 103.586 140.5 103.362 140.5 103.086V98.0572ZM140.5 108.114C140.5 107.838 140.276 107.614 140 107.614C139.724 107.614 139.5 107.838 139.5 108.114V113.143C139.5 113.419 139.724 113.643 140 113.643C140.276 113.643 140.5 113.419 140.5 113.143V108.114ZM140.5 118.171C140.5 117.895 140.276 117.671 140 117.671C139.724 117.671 139.5 117.895 139.5 118.171V123.2C139.5 123.476 139.724 123.7 140 123.7C140.276 123.7 140.5 123.476 140.5 123.2V118.171ZM140.5 128.229C140.5 127.952 140.276 127.729 140 127.729C139.724 127.729 139.5 127.952 139.5 128.229V133.257C139.5 133.533 139.724 133.757 140 133.757C140.276 133.757 140.5 133.533 140.5 133.257V128.229ZM140.5 138.286C140.5 138.01 140.276 137.786 140 137.786C139.724 137.786 139.5 138.01 139.5 138.286V143.314C139.5 143.59 139.724 143.814 140 143.814C140.276 143.814 140.5 143.59 140.5 143.314V138.286ZM140.5 148.343C140.5 148.067 140.276 147.843 140 147.843C139.724 147.843 139.5 148.067 139.5 148.343V153.371C139.5 153.648 139.724 153.871 140 153.871C140.276 153.871 140.5 153.648 140.5 153.371V148.343ZM140.5 158.4C140.5 158.124 140.276 157.9 140 157.9C139.724 157.9 139.5 158.124 139.5 158.4V163.429C139.5 163.705 139.724 163.929 140 163.929C140.276 163.929 140.5 163.705 140.5 163.429V158.4ZM140.5 168.457C140.5 168.181 140.276 167.957 140 167.957C139.724 167.957 139.5 168.181 139.5 168.457V173.486C139.5 173.762 139.724 173.986 140 173.986C140.276 173.986 140.5 173.762 140.5 173.486V168.457ZM140.5 178.514C140.5 178.238 140.276 178.014 140 178.014C139.724 178.014 139.5 178.238 139.5 178.514V183.543C139.5 183.819 139.724 184.043 140 184.043C140.276 184.043 140.5 183.819 140.5 183.543V178.514ZM140.5 188.571C140.5 188.295 140.276 188.071 140 188.071C139.724 188.071 139.5 188.295 139.5 188.571V193.6C139.5 193.876 139.724 194.1 140 194.1C140.276 194.1 140.5 193.876 140.5 193.6V188.571ZM140.5 198.628C140.5 198.352 140.276 198.128 140 198.128C139.724 198.128 139.5 198.352 139.5 198.628V203.657C139.5 203.933 139.724 204.157 140 204.157C140.276 204.157 140.5 203.933 140.5 203.657V198.628ZM140.5 208.686C140.5 208.409 140.276 208.186 140 208.186C139.724 208.186 139.5 208.409 139.5 208.686V213.714C139.5 213.99 139.724 214.214 140 214.214C140.276 214.214 140.5 213.99 140.5 213.714V208.686ZM140.5 218.743C140.5 218.467 140.276 218.243 140 218.243C139.724 218.243 139.5 218.467 139.5 218.743V223.771C139.5 224.047 139.724 224.271 140 224.271C140.276 224.271 140.5 224.047 140.5 223.771V218.743ZM140.5 228.8C140.5 228.524 140.276 228.3 140 228.3C139.724 228.3 139.5 228.524 139.5 228.8V233.828C139.5 234.105 139.724 234.328 140 234.328C140.276 234.328 140.5 234.105 140.5 233.828V228.8ZM140.5 238.857C140.5 238.581 140.276 238.357 140 238.357C139.724 238.357 139.5 238.581 139.5 238.857V243.886C139.5 244.162 139.724 244.386 140 244.386C140.276 244.386 140.5 244.162 140.5 243.886V238.857ZM140.5 248.914C140.5 248.638 140.276 248.414 140 248.414C139.724 248.414 139.5 248.638 139.5 248.914V253.943C139.5 254.219 139.724 254.443 140 254.443C140.276 254.443 140.5 254.219 140.5 253.943V248.914ZM140.5 258.971C140.5 258.695 140.276 258.471 140 258.471C139.724 258.471 139.5 258.695 139.5 258.971V264C139.5 264.276 139.724 264.5 140 264.5C140.276 264.5 140.5 264.276 140.5 264V258.971ZM140.5 269.028C140.5 268.752 140.276 268.528 140 268.528C139.724 268.528 139.5 268.752 139.5 269.028V274.057C139.5 274.333 139.724 274.557 140 274.557C140.276 274.557 140.5 274.333 140.5 274.057V269.028ZM140.5 279.086C140.5 278.809 140.276 278.586 140 278.586C139.724 278.586 139.5 278.809 139.5 279.086V284.114C139.5 284.39 139.724 284.614 140 284.614C140.276 284.614 140.5 284.39 140.5 284.114V279.086ZM140.5 289.143C140.5 288.866 140.276 288.643 140 288.643C139.724 288.643 139.5 288.866 139.5 289.143V294.171C139.5 294.447 139.724 294.671 140 294.671C140.276 294.671 140.5 294.447 140.5 294.171V289.143ZM140.5 299.2C140.5 298.924 140.276 298.7 140 298.7C139.724 298.7 139.5 298.924 139.5 299.2V304.228C139.5 304.504 139.724 304.728 140 304.728C140.276 304.728 140.5 304.504 140.5 304.228V299.2ZM140.5 309.257C140.5 308.981 140.276 308.757 140 308.757C139.724 308.757 139.5 308.981 139.5 309.257V314.285C139.5 314.562 139.724 314.785 140 314.785C140.276 314.785 140.5 314.562 140.5 314.285V309.257ZM140.5 319.314C140.5 319.038 140.276 318.814 140 318.814C139.724 318.814 139.5 319.038 139.5 319.314V324.343C139.5 324.619 139.724 324.843 140 324.843C140.276 324.843 140.5 324.619 140.5 324.343V319.314ZM140.5 329.371C140.5 329.095 140.276 328.871 140 328.871C139.724 328.871 139.5 329.095 139.5 329.371V334.4C139.5 334.676 139.724 334.9 140 334.9C140.276 334.9 140.5 334.676 140.5 334.4V329.371ZM140.5 339.428C140.5 339.152 140.276 338.928 140 338.928C139.724 338.928 139.5 339.152 139.5 339.428V344.457C139.5 344.733 139.724 344.957 140 344.957C140.276 344.957 140.5 344.733 140.5 344.457V339.428Z" stroke="#7993AD" stroke-linecap="round" stroke-linejoin="round" stroke-dasharray="5 5"/>
</svg>
