<svg width="401" height="300" viewBox="0 0 401 300" fill="none" xmlns="http://www.w3.org/2000/svg">
<path d="M286.51 157.193L247.999 257.096C245.024 264.813 237.607 269.903 229.337 269.903L170.36 269.903C162.09 269.903 154.673 264.813 151.699 257.096L113.188 157.193C111.403 152.563 111.403 147.435 113.188 142.806L151.699 42.9024C154.673 35.186 162.09 30.0961 170.36 30.0961L229.337 30.0961C237.607 30.0961 245.024 35.186 247.999 42.9024L286.51 142.806C288.294 147.435 288.294 152.563 286.51 157.193Z" stroke="#C6DCFF" stroke-opacity="0.6" stroke-width="20"/>
<path d="M339.81 157.193L301.299 257.096C298.325 264.813 290.908 269.903 282.638 269.903L223.661 269.903C215.391 269.903 207.974 264.813 205 257.096L166.488 157.193C164.704 152.563 164.704 147.435 166.488 142.806L205 42.9024C207.974 35.186 215.391 30.0961 223.661 30.0961L282.638 30.0961C290.908 30.0961 298.325 35.186 301.299 42.9024L339.81 142.806C341.595 147.435 341.595 152.563 339.81 157.193Z" stroke="#C6DCFF" stroke-opacity="0.8" stroke-width="20"/>
<path d="M386.81 157.193L348.299 257.096C345.325 264.813 337.908 269.903 329.638 269.903L270.661 269.903C262.391 269.903 254.974 264.813 252 257.096L213.488 157.193C211.704 152.563 211.704 147.435 213.488 142.806L252 42.9024C254.974 35.186 262.391 30.0961 270.661 30.0961L329.638 30.0961C337.908 30.0961 345.325 35.186 348.299 42.9024L386.81 142.806C388.595 147.435 388.595 152.563 386.81 157.193Z" stroke="#C6DCFF" stroke-width="20"/>
<path d="M65.7208 142.807L104.232 42.9036C107.207 35.1871 114.624 30.0973 122.893 30.0973L181.87 30.0973C190.14 30.0973 197.557 35.1871 200.532 42.9036L239.043 142.807C240.827 147.437 240.827 152.565 239.043 157.194L200.532 257.098C197.557 264.814 190.14 269.904 181.87 269.904L122.893 269.904C114.623 269.904 107.206 264.814 104.232 257.098L65.7208 157.194C63.9361 152.565 63.9361 147.437 65.7208 142.807Z" stroke="#C6DCFF" stroke-opacity="0.4" stroke-width="20"/>
<path opacity="0.9" d="M13.4903 142.807L52.0015 42.9036C54.976 35.1871 62.3931 30.0973 70.663 30.0973L129.64 30.0973C137.91 30.0973 145.327 35.1871 148.301 42.9036L186.812 142.807C188.597 147.437 188.597 152.565 186.812 157.194L148.301 257.098C145.327 264.814 137.91 269.904 129.64 269.904L70.6629 269.904C62.393 269.904 54.976 264.814 52.0015 257.098L13.4903 157.194C11.7056 152.565 11.7056 147.437 13.4903 142.807Z" stroke="#C6DCFF" stroke-opacity="0.2" stroke-width="20"/>
</svg>
