<svg width="646" height="646" viewBox="0 0 646 646" fill="none" xmlns="http://www.w3.org/2000/svg">
<path d="M302 12.1244C314.995 4.62178 331.005 4.62178 344 12.1244L581.726 149.376C594.721 156.878 602.726 170.744 602.726 185.749V460.251C602.726 475.256 594.721 489.122 581.726 496.624L344 633.876C331.005 641.378 314.995 641.378 302 633.876L64.2738 496.624C51.279 489.122 43.2738 475.256 43.2738 460.251V185.749C43.2738 170.744 51.279 156.878 64.2738 149.376L302 12.1244Z" fill="url(#paint0_linear_7_15)"/>
<path d="M331.285 435C310.582 435 292.057 430.091 275.713 420.273C259.368 410.455 246.428 397.091 236.893 380.182C227.631 363.273 223 344.045 223 322.5C223 301.227 227.631 282.136 236.893 265.227C246.428 248.045 259.368 234.545 275.713 224.727C292.057 214.909 310.582 210 331.285 210C350.627 210 368.334 213.545 384.407 220.636C400.479 227.727 413.01 237.545 422 250.091L390.127 288.545C386.313 283.364 381.546 278.727 375.825 274.636C370.105 270.273 363.839 266.864 357.029 264.409C350.491 261.955 343.68 260.727 336.598 260.727C325.428 260.727 315.485 263.455 306.768 268.909C298.323 274.091 291.649 281.318 286.745 290.591C281.842 299.864 279.39 310.5 279.39 322.5C279.39 334.227 281.842 344.727 286.745 354C291.921 363 298.868 370.364 307.585 376.091C316.303 381.545 326.11 384.273 337.006 384.273C344.089 384.273 350.763 383.318 357.029 381.409C363.294 379.227 369.151 376.091 374.6 372C380.32 367.909 385.496 363 390.127 357.273L421.591 395.727C412.329 407.455 399.526 417 383.181 424.364C366.836 431.455 349.537 435 331.285 435Z" fill="#262B2F"/>
<defs>
<linearGradient id="paint0_linear_7_15" x1="0" y1="0" x2="646" y2="646" gradientUnits="userSpaceOnUse">
<stop offset="0.19375" stop-color="#6FFFD4"/>
<stop offset="0.813541" stop-color="#3D68BE"/>
</linearGradient>
</defs>
</svg>
