<svg width="811" height="811" viewBox="0 0 811 811" fill="none" xmlns="http://www.w3.org/2000/svg">
<path d="M508.697 250.974L590.042 391.867C594.686 399.911 594.686 409.822 590.042 417.867L508.697 558.759C504.053 566.804 495.47 571.759 486.181 571.759L323.492 571.759C314.203 571.759 305.62 566.804 300.975 558.759L219.631 417.867C214.986 409.822 214.986 399.911 219.631 391.867L300.975 250.974C305.62 242.93 314.203 237.974 323.492 237.974L486.181 237.974C495.47 237.974 504.053 242.93 508.697 250.974Z" stroke="#7C92B5" stroke-width="16" stroke-linejoin="round"/>
<path d="M563.549 181.795L677.78 379.651C686.891 395.43 686.891 414.871 677.78 430.651L563.549 628.506C554.438 644.285 537.602 654.006 519.381 654.006L290.918 654.006C272.697 654.006 255.861 644.285 246.751 628.506L132.519 430.651C123.409 414.871 123.409 395.43 132.519 379.651L246.751 181.795C255.861 166.016 272.697 156.295 290.918 156.295L519.381 156.295C537.602 156.295 554.438 166.016 563.549 181.795Z" stroke="#434B59" stroke-width="16" stroke-linejoin="round"/>
<circle cx="504.969" cy="240" r="30" fill="#7C92B5" stroke="#C6DCFF" stroke-width="20"/>
<circle cx="311.289" cy="240.32" r="30" transform="rotate(-60 311.289 240.32)" fill="#7C92B5" stroke="#C6DCFF" stroke-width="20"/>
<circle cx="496.969" cy="567" r="30" fill="#7C92B5" stroke="#C6DCFF" stroke-width="20"/>
<circle cx="592.289" cy="403.68" r="30" transform="rotate(-60 592.289 403.68)" fill="#7C92B5" stroke="#C6DCFF" stroke-width="20"/>
<circle cx="313.969" cy="572" r="30" fill="#7C92B5" stroke="#C6DCFF" stroke-width="20"/>
<circle cx="218.289" cy="403.68" r="30" transform="rotate(-60 218.289 403.68)" fill="#7C92B5" stroke="#C6DCFF" stroke-width="20"/>
</svg>
